{
  "source": "C:\\Users\\Peter\\Desktop\\stuff\\MIUN\\quantitative_research\\video_compression\\videos\\BVI-HD\\BallUnderWater_1920x1080_60fps.mp4",
  "output": "C:\\Users\\Peter\\Desktop\\stuff\\MIUN\\quantitative_research\\video_compression\\compressed_videos\\BVI-HD\\vp9\\12\\BallUnderWater_1920x1080_60fps_vp9.webm",
  "codec": "vp9",
  "ok": "Input #0, mov,mp4,m4a,3gp,3g2,mj2, from 'C:\\Users\\Peter\\Desktop\\stuff\\MIUN\\quantitative_research\\video_compression\\videos\\BVI-HD\\BallUnderWater_1920x1080_60fps.mp4':\n  Metadata:\n    major_brand     : isom\n    minor_version   : 512\n    compatible_brands: isomiso2avc1mp41\n    encoder         : Lavf54.28.101\n  Duration: 00:00:05.00, start: 0.000000, bitrate: 212030 kb/s\n  Stream #0:0[0x1](und): Video: h264 (High 4:4:4 Predictive) (avc1 / 0x31637661), yuv420p(progressive), 1920x1080, 212025 kb/s, 60 fps, 60 tbr, 60 tbn (default)\n    Metadata:\n      handler_name    : VideoHandler\n      vendor_id       : [0][0][0][0]\n[out#0/webm @ 0000029e9b7d93c0] Codec AVOption b:a (set bitrate (in bits/s)) has not been used for any stream. The most likely reason is either wrong type (e.g. a video option with no video streams) or that it is a private option of some decoder which was not actually used for any stream.\nStream mapping:\n  Stream #0:0 -> #0:0 (h264 (native) -> vp9 (libvpx-vp9))\nPress [q] to stop, [?] for help\n[libvpx-vp9 @ 0000029e9b7ebbc0] v1.15.2-100-g40561f514\nOutput #0, webm, to 'C:\\Users\\Peter\\Desktop\\stuff\\MIUN\\quantitative_research\\video_compression\\compressed_videos\\BVI-HD\\vp9\\12\\BallUnderWater_1920x1080_60fps_vp9.webm':\n  Metadata:\n    major_brand     : isom\n    minor_version   : 512\n    compatible_brands: isomiso2avc1mp41\n    encoder         : Lavf62.3.100\n  Stream #0:0(und): Video: vp9, yuv420p(tv, progressive), 1920x1080, q=2-31, 12000 kb/s, 60 fps, 1k tbn (default)\n    Metadata:\n      encoder         : Lavc62.11.100 libvpx-vp9\n      handler_name    : VideoHandler\n      vendor_id       : [0][0][0][0]\n    Side data:\n      cpb: bitrate max/min/avg: 0/0/0 buffer size: 12000000 vbv_delay: N/A\nframe=    0 fps=0.0 q=0.0 size=       0KiB time=N/A bitrate=N/A speed=N/A elapsed=0:00:01.13    \nframe=    0 fps=0.0 q=0.0 size=       0KiB time=N/A bitrate=N/A speed=N/A elapsed=0:00:01.71    \nframe=    0 fps=0.0 q=0.0 size=       0KiB time=N/A bitrate=N/A speed=N/A elapsed=0:00:02.26    \nframe=    0 fps=0.0 q=0.0 size=       0KiB time=N/A bitrate=N/A speed=N/A elapsed=0:00:02.79    \nframe=    0 fps=0.0 q=0.0 size=       0KiB time=N/A bitrate=N/A speed=N/A elapsed=0:00:03.32    \nframe=    2 fps=0.5 q=23.0 size=       1KiB time=00:00:00.03 bitrate= 151.9kbits/s speed=0.00867x elapsed=0:00:03.84    \nframe=    3 fps=0.7 q=43.0 size=       1KiB time=00:00:00.05 bitrate= 101.3kbits/s speed=0.0114x elapsed=0:00:04.36    \nframe=    6 fps=1.2 q=28.0 size=       1KiB time=00:00:00.10 bitrate=  50.6kbits/s speed=0.0204x elapsed=0:00:04.90    \nframe=    8 fps=1.5 q=26.0 size=       1KiB time=00:00:00.13 bitrate=  38.0kbits/s speed=0.0244x elapsed=0:00:05.46    \nframe=   10 fps=1.7 q=25.0 size=       1KiB time=00:00:00.16 bitrate=  30.4kbits/s speed=0.0278x elapsed=0:00:05.99    \nframe=   12 fps=1.8 q=25.0 size=       1KiB time=00:00:00.20 bitrate=  25.3kbits/s speed=0.0307x elapsed=0:00:06.52    \nframe=   13 fps=1.8 q=15.0 size=       1KiB time=00:00:00.21 bitrate=  23.4kbits/s speed=0.0301x elapsed=0:00:07.18    \nframe=   13 fps=1.7 q=15.0 size=       1KiB time=00:00:00.21 bitrate=  23.4kbits/s speed=0.0276x elapsed=0:00:07.85    \nframe=   14 fps=1.7 q=25.0 size=       1KiB time=00:00:00.23 bitrate=  21.7kbits/s speed=0.0278x elapsed=0:00:08.40    \nframe=   14 fps=1.6 q=25.0 size=       1KiB time=00:00:00.23 bitrate=  21.7kbits/s speed=0.026x elapsed=0:00:08.98    \nframe=   14 fps=1.5 q=25.0 size=       1KiB time=00:00:00.23 bitrate=  21.7kbits/s speed=0.0245x elapsed=0:00:09.53    \nframe=   15 fps=1.5 q=25.0 size=       1KiB time=00:00:00.25 bitrate=  20.3kbits/s speed=0.0249x elapsed=0:00:10.04    \nframe=   16 fps=1.5 q=25.0 size=       1KiB time=00:00:00.26 bitrate=  19.0kbits/s speed=0.0252x elapsed=0:00:10.56    \nframe=   16 fps=1.4 q=25.0 size=       1KiB time=00:00:00.26 bitrate=  19.0kbits/s speed=0.024x elapsed=0:00:11.10    \nframe=   17 fps=1.5 q=26.0 size=       1KiB time=00:00:00.28 bitrate=  17.9kbits/s speed=0.0242x elapsed=0:00:11.71    \nframe=   18 fps=1.4 q=25.0 size=       1KiB time=00:00:00.30 bitrate=  16.9kbits/s speed=0.0241x elapsed=0:00:12.44    \nframe=   18 fps=1.4 q=25.0 size=       1KiB time=00:00:00.30 bitrate=  16.9kbits/s speed=0.0231x elapsed=0:00:12.98    \nframe=   19 fps=1.4 q=25.0 size=       1KiB time=00:00:00.31 bitrate=  16.0kbits/s speed=0.0234x elapsed=0:00:13.51    \nframe=   19 fps=1.4 q=25.0 size=       1KiB time=00:00:00.31 bitrate=  16.0kbits/s speed=0.0225x elapsed=0:00:14.06    \nframe=   19 fps=1.3 q=25.0 size=       1KiB time=00:00:00.31 bitrate=  16.0kbits/s speed=0.0216x elapsed=0:00:14.62    \nframe=   20 fps=1.3 q=25.0 size=       1KiB time=00:00:00.33 bitrate=  15.2kbits/s speed=0.022x elapsed=0:00:15.18    \nframe=   20 fps=1.3 q=25.0 size=       1KiB time=00:00:00.33 bitrate=  15.2kbits/s speed=0.0212x elapsed=0:00:15.72    \nframe=   21 fps=1.3 q=25.0 size=       1KiB time=00:00:00.35 bitrate=  14.5kbits/s speed=0.0215x elapsed=0:00:16.26    \nframe=   21 fps=1.2 q=25.0 size=       1KiB time=00:00:00.35 bitrate=  14.5kbits/s speed=0.0207x elapsed=0:00:16.88    \nframe=   21 fps=1.2 q=25.0 size=       1KiB time=00:00:00.35 bitrate=  14.5kbits/s speed=0.02x elapsed=0:00:17.52    \nframe=   22 fps=1.2 q=26.0 size=       1KiB time=00:00:00.36 bitrate=  13.8kbits/s speed=0.0203x elapsed=0:00:18.09    \nframe=   23 fps=1.2 q=25.0 size=       1KiB time=00:00:00.38 bitrate=  13.2kbits/s speed=0.0206x elapsed=0:00:18.62    \nframe=   24 fps=1.3 q=25.0 size=       1KiB time=00:00:00.40 bitrate=  12.7kbits/s speed=0.0208x elapsed=0:00:19.19    \nframe=   24 fps=1.2 q=25.0 size=       1KiB time=00:00:00.40 bitrate=  12.7kbits/s speed=0.0201x elapsed=0:00:19.88    \nframe=   25 fps=1.2 q=10.0 size=       1KiB time=00:00:00.41 bitrate=  12.2kbits/s speed=0.0203x elapsed=0:00:20.49    \nframe=   26 fps=1.2 q=25.0 size=       1KiB time=00:00:00.43 bitrate=  11.7kbits/s speed=0.0206x elapsed=0:00:21.05    \nframe=   27 fps=1.2 q=26.0 size=       1KiB time=00:00:00.45 bitrate=  11.3kbits/s speed=0.0208x elapsed=0:00:21.61    \nframe=   29 fps=1.3 q=27.0 size=       1KiB time=00:00:00.48 bitrate=  10.5kbits/s speed=0.0217x elapsed=0:00:22.26    \nframe=   30 fps=1.3 q=27.0 size=       1KiB time=00:00:00.50 bitrate=  10.1kbits/s speed=0.0218x elapsed=0:00:22.96    \nframe=   32 fps=1.4 q=29.0 size=       1KiB time=00:00:00.53 bitrate=   9.5kbits/s speed=0.0225x elapsed=0:00:23.65    \nframe=   34 fps=1.4 q=29.0 size=       1KiB time=00:00:00.55 bitrate=   9.2kbits/s speed=0.0226x elapsed=0:00:24.34    \nframe=   35 fps=1.4 q=30.0 size=       1KiB time=00:00:00.58 bitrate=   8.7kbits/s speed=0.0233x elapsed=0:00:25.06    \nframe=   36 fps=1.4 q=30.0 size=       1KiB time=00:00:00.60 bitrate=   8.4kbits/s speed=0.0233x elapsed=0:00:25.73    \nframe=   38 fps=1.4 q=29.0 size=       1KiB time=00:00:00.63 bitrate=   8.0kbits/s speed=0.0239x elapsed=0:00:26.47    \nframe=   39 fps=1.4 q=29.0 size=       1KiB time=00:00:00.65 bitrate=   7.8kbits/s speed=0.0238x elapsed=0:00:27.26    \nframe=   41 fps=1.5 q=29.0 size=       1KiB time=00:00:00.66 bitrate=   7.6kbits/s speed=0.0238x elapsed=0:00:28.05    \nframe=   42 fps=1.5 q=28.0 size=       1KiB time=00:00:00.70 bitrate=   7.2kbits/s speed=0.0242x elapsed=0:00:28.87    \nframe=   42 fps=1.4 q=28.0 size=       1KiB time=00:00:00.70 bitrate=   7.2kbits/s speed=0.0235x elapsed=0:00:29.72    \nframe=   43 fps=1.4 q=16.0 size=       1KiB time=00:00:00.71 bitrate=   7.1kbits/s speed=0.0235x elapsed=0:00:30.43    \nframe=   45 fps=1.5 q=28.0 size=       1KiB time=00:00:00.75 bitrate=   6.8kbits/s speed=0.0242x elapsed=0:00:30.98    \nframe=   46 fps=1.5 q=27.0 size=       1KiB time=00:00:00.76 bitrate=   6.6kbits/s speed=0.0242x elapsed=0:00:31.68    \nframe=   47 fps=1.4 q=27.0 size=       1KiB time=00:00:00.78 bitrate=   6.5kbits/s speed=0.0241x elapsed=0:00:32.48    \nframe=   48 fps=1.4 q=27.0 size=       1KiB time=00:00:00.80 bitrate=   6.3kbits/s speed=0.024x elapsed=0:00:33.31    \nframe=   49 fps=1.4 q=14.0 size=       1KiB time=00:00:00.81 bitrate=   6.2kbits/s speed=0.0239x elapsed=0:00:34.17    \nframe=   50 fps=1.4 q=27.0 size=       1KiB time=00:00:00.83 bitrate=   6.1kbits/s speed=0.0238x elapsed=0:00:35.07    \nframe=   51 fps=1.4 q=27.0 size=       1KiB time=00:00:00.85 bitrate=   6.0kbits/s speed=0.0237x elapsed=0:00:35.92    \nframe=   53 fps=1.4 q=27.0 size=       1KiB time=00:00:00.88 bitrate=   5.7kbits/s speed=0.024x elapsed=0:00:36.74    \nframe=   54 fps=1.4 q=27.0 size=       1KiB time=00:00:00.90 bitrate=   5.6kbits/s speed=0.024x elapsed=0:00:37.46    \nframe=   54 fps=1.4 q=27.0 size=       1KiB time=00:00:00.90 bitrate=   5.6kbits/s speed=0.0235x elapsed=0:00:38.24    \nframe=   56 fps=1.4 q=27.0 size=       1KiB time=00:00:00.91 bitrate=   5.5kbits/s speed=0.0235x elapsed=0:00:38.99    \nframe=   57 fps=1.4 q=27.0 size=       1KiB time=00:00:00.95 bitrate=   5.3kbits/s speed=0.0239x elapsed=0:00:39.73    \nframe=   59 fps=1.5 q=27.0 size=       1KiB time=00:00:00.96 bitrate=   5.2kbits/s speed=0.0238x elapsed=0:00:40.54    \nframe=   60 fps=1.5 q=27.0 size=       1KiB time=00:00:01.00 bitrate=   5.1kbits/s speed=0.0242x elapsed=0:00:41.31    \nframe=   60 fps=1.4 q=27.0 size=       1KiB time=00:00:01.00 bitrate=   5.1kbits/s speed=0.0239x elapsed=0:00:41.82    \nframe=   60 fps=1.4 q=27.0 size=       1KiB time=00:00:01.00 bitrate=   5.1kbits/s speed=0.0236x elapsed=0:00:42.33    \nframe=   61 fps=1.4 q=14.0 size=       1KiB time=00:00:01.01 bitrate=   5.0kbits/s speed=0.0237x elapsed=0:00:42.85    \nframe=   62 fps=1.4 q=27.0 size=       1KiB time=00:00:01.03 bitrate=   4.9kbits/s speed=0.0238x elapsed=0:00:43.37    \nframe=   63 fps=1.4 q=27.0 size=       1KiB time=00:00:01.05 bitrate=   4.8kbits/s speed=0.0239x elapsed=0:00:43.92    \nframe=   64 fps=1.4 q=27.0 size=       1KiB time=00:00:01.06 bitrate=   4.7kbits/s speed=0.024x elapsed=0:00:44.43    \nframe=   65 fps=1.4 q=27.0 size=       1KiB time=00:00:01.06 bitrate=   4.7kbits/s speed=0.0237x elapsed=0:00:44.96    \nframe=   66 fps=1.4 q=27.0 size=       1KiB time=00:00:01.10 bitrate=   4.6kbits/s speed=0.0241x elapsed=0:00:45.56    \nframe=   66 fps=1.4 q=27.0 size=       1KiB time=00:00:01.10 bitrate=   4.6kbits/s speed=0.0238x elapsed=0:00:46.12    \nframe=   67 fps=1.4 q=14.0 size=       1KiB time=00:00:01.11 bitrate=   4.5kbits/s speed=0.0239x elapsed=0:00:46.69    \nframe=   68 fps=1.4 q=27.0 size=       1KiB time=00:00:01.13 bitrate=   4.5kbits/s speed=0.024x elapsed=0:00:47.25    \nframe=   69 fps=1.4 q=27.0 size=       1KiB time=00:00:01.15 bitrate=   4.4kbits/s speed=0.0241x elapsed=0:00:47.76    \nframe=   70 fps=1.4 q=27.0 size=       1KiB time=00:00:01.16 bitrate=   4.3kbits/s speed=0.0242x elapsed=0:00:48.28    \nframe=   72 fps=1.5 q=26.0 size=       1KiB time=00:00:01.18 bitrate=   4.3kbits/s speed=0.0242x elapsed=0:00:48.83    \nframe=   72 fps=1.5 q=26.0 size=       1KiB time=00:00:01.20 bitrate=   4.2kbits/s speed=0.0243x elapsed=0:00:49.37    \nframe=   73 fps=1.5 q=14.0 size=       1KiB time=00:00:01.21 bitrate=   4.2kbits/s speed=0.0244x elapsed=0:00:49.88    \nframe=   74 fps=1.5 q=26.0 size=       1KiB time=00:00:01.23 bitrate=   4.1kbits/s speed=0.0245x elapsed=0:00:50.40    \nframe=   75 fps=1.5 q=26.0 size=       1KiB time=00:00:01.25 bitrate=   4.1kbits/s speed=0.0245x elapsed=0:00:51.00    \nframe=   76 fps=1.5 q=26.0 size=       1KiB time=00:00:01.26 bitrate=   4.0kbits/s speed=0.0246x elapsed=0:00:51.53    \nframe=   78 fps=1.5 q=25.0 size=       1KiB time=00:00:01.30 bitrate=   3.9kbits/s speed=0.025x elapsed=0:00:52.05    \nframe=   78 fps=1.5 q=25.0 size=       1KiB time=00:00:01.30 bitrate=   3.9kbits/s speed=0.0247x elapsed=0:00:52.57    \nframe=   79 fps=1.5 q=12.0 size=       1KiB time=00:00:01.31 bitrate=   3.8kbits/s speed=0.0248x elapsed=0:00:53.11    \nframe=   80 fps=1.5 q=25.0 size=       1KiB time=00:00:01.33 bitrate=   3.8kbits/s speed=0.0249x elapsed=0:00:53.62    \nframe=   82 fps=1.5 q=25.0 size=       1KiB time=00:00:01.36 bitrate=   3.7kbits/s speed=0.0252x elapsed=0:00:54.16    \nframe=   83 fps=1.5 q=25.0 size=       1KiB time=00:00:01.38 bitrate=   3.7kbits/s speed=0.0253x elapsed=0:00:54.68    \nframe=   84 fps=1.5 q=25.0 size=       1KiB time=00:00:01.40 bitrate=   3.6kbits/s speed=0.0254x elapsed=0:00:55.20    \nframe=   85 fps=1.5 q=12.0 size=       1KiB time=00:00:01.41 bitrate=   3.6kbits/s speed=0.0254x elapsed=0:00:55.72    \nframe=   86 fps=1.5 q=25.0 size=       1KiB time=00:00:01.43 bitrate=   3.5kbits/s speed=0.0255x elapsed=0:00:56.25    \nframe=   88 fps=1.5 q=27.0 size=       1KiB time=00:00:01.45 bitrate=   3.5kbits/s speed=0.0255x elapsed=0:00:56.78    \nframe=   89 fps=1.6 q=28.0 size=       1KiB time=00:00:01.48 bitrate=   3.4kbits/s speed=0.0259x elapsed=0:00:57.34    \nframe=   90 fps=1.6 q=28.0 size=       1KiB time=00:00:01.50 bitrate=   3.4kbits/s speed=0.0259x elapsed=0:00:57.90    \nframe=   90 fps=1.5 q=28.0 size=       1KiB time=00:00:01.50 bitrate=   3.4kbits/s speed=0.0257x elapsed=0:00:58.43    \nframe=   91 fps=1.5 q=14.0 size=       1KiB time=00:00:01.51 bitrate=   3.3kbits/s speed=0.0257x elapsed=0:00:58.94    \nframe=   92 fps=1.5 q=28.0 size=       1KiB time=00:00:01.53 bitrate=   3.3kbits/s speed=0.0258x elapsed=0:00:59.49    \nframe=   94 fps=1.6 q=29.0 size=       1KiB time=00:00:01.56 bitrate=   3.2kbits/s speed=0.0261x elapsed=0:01:00.02    \nframe=   95 fps=1.6 q=28.0 size=       1KiB time=00:00:01.58 bitrate=   3.2kbits/s speed=0.0261x elapsed=0:01:00.56    \nframe=   96 fps=1.6 q=28.0 size=       1KiB time=00:00:01.60 bitrate=   3.2kbits/s speed=0.0262x elapsed=0:01:01.10    \nframe=   96 fps=1.6 q=28.0 size=       1KiB time=00:00:01.60 bitrate=   3.2kbits/s speed=0.026x elapsed=0:01:01.64    \nframe=   97 fps=1.6 q=15.0 size=       1KiB time=00:00:01.61 bitrate=   3.1kbits/s speed=0.026x elapsed=0:01:02.16    \nframe=   98 fps=1.6 q=27.0 size=       1KiB time=00:00:01.63 bitrate=   3.1kbits/s speed=0.0261x elapsed=0:01:02.69    \nframe=  100 fps=1.6 q=27.0 size=       1KiB time=00:00:01.66 bitrate=   3.0kbits/s speed=0.0264x elapsed=0:01:03.21    \nframe=  101 fps=1.6 q=27.0 size=       1KiB time=00:00:01.68 bitrate=   3.0kbits/s speed=0.0264x elapsed=0:01:03.73    \nframe=  102 fps=1.6 q=26.0 size=       1KiB time=00:00:01.70 bitrate=   3.0kbits/s speed=0.0265x elapsed=0:01:04.26    \nframe=  103 fps=1.6 q=13.0 size=       1KiB time=00:00:01.71 bitrate=   2.9kbits/s speed=0.0265x elapsed=0:01:04.80    \nframe=  104 fps=1.6 q=26.0 size=       1KiB time=00:00:01.73 bitrate=   2.9kbits/s speed=0.0265x elapsed=0:01:05.35    \nframe=  104 fps=1.6 q=26.0 size=       1KiB time=00:00:01.73 bitrate=   2.9kbits/s speed=0.0263x elapsed=0:01:05.93    \nframe=  105 fps=1.6 q=26.0 size=       1KiB time=00:00:01.75 bitrate=   2.9kbits/s speed=0.0263x elapsed=0:01:06.53    \nframe=  107 fps=1.6 q=26.0 size=       1KiB time=00:00:01.78 bitrate=   2.8kbits/s speed=0.0266x elapsed=0:01:07.14    \nframe=  108 fps=1.6 q=26.0 size=       1KiB time=00:00:01.80 bitrate=   2.8kbits/s speed=0.0266x elapsed=0:01:07.78    \nframe=  108 fps=1.6 q=26.0 size=       1KiB time=00:00:01.80 bitrate=   2.8kbits/s speed=0.0263x elapsed=0:01:08.31    \nframe=  109 fps=1.6 q=13.0 size=       1KiB time=00:00:01.81 bitrate=   2.8kbits/s speed=0.0264x elapsed=0:01:08.86    \nframe=  110 fps=1.6 q=26.0 size=       1KiB time=00:00:01.83 bitrate=   2.8kbits/s speed=0.0264x elapsed=0:01:09.42    \nframe=  111 fps=1.6 q=27.0 size=       1KiB time=00:00:01.85 bitrate=   2.7kbits/s speed=0.0265x elapsed=0:01:09.93    \nframe=  113 fps=1.6 q=27.0 size=       1KiB time=00:00:01.88 bitrate=   2.7kbits/s speed=0.0267x elapsed=0:01:10.44    \nframe=  114 fps=1.6 q=27.0 size=       1KiB time=00:00:01.90 bitrate=   2.7kbits/s speed=0.0268x elapsed=0:01:10.97    \nframe=  114 fps=1.6 q=27.0 size=       1KiB time=00:00:01.90 bitrate=   2.7kbits/s speed=0.0266x elapsed=0:01:11.48    \nframe=  116 fps=1.6 q=27.0 size=       1KiB time=00:00:01.93 bitrate=   2.6kbits/s speed=0.0268x elapsed=0:01:12.07    \nframe=  117 fps=1.6 q=27.0 size=       1KiB time=00:00:01.95 bitrate=   2.6kbits/s speed=0.0269x elapsed=0:01:12.61    \nframe=  118 fps=1.6 q=27.0 size=       1KiB time=00:00:01.96 bitrate=   2.6kbits/s speed=0.0269x elapsed=0:01:13.11    \nframe=  119 fps=1.6 q=26.0 size=       1KiB time=00:00:01.98 bitrate=   2.6kbits/s speed=0.0269x elapsed=0:01:13.67    \nframe=  120 fps=1.6 q=26.0 size=       1KiB time=00:00:02.00 bitrate=   2.5kbits/s speed=0.0269x elapsed=0:01:14.24    \nframe=  120 fps=1.6 q=26.0 size=       1KiB time=00:00:02.00 bitrate=   2.5kbits/s speed=0.0267x elapsed=0:01:14.78    \nframe=  122 fps=1.6 q=25.0 size=       1KiB time=00:00:02.03 bitrate=   2.5kbits/s speed=0.027x elapsed=0:01:15.31    \nframe=  123 fps=1.6 q=25.0 size=       1KiB time=00:00:02.05 bitrate=   2.5kbits/s speed=0.027x elapsed=0:01:15.85    \nframe=  124 fps=1.6 q=25.0 size=       1KiB time=00:00:02.06 bitrate=   2.5kbits/s speed=0.0271x elapsed=0:01:16.37    \nframe=  125 fps=1.6 q=25.0 size=       1KiB time=00:00:02.08 bitrate=   2.4kbits/s speed=0.0271x elapsed=0:01:16.89    \nframe=  127 fps=1.6 q=25.0 size=       1KiB time=00:00:02.11 bitrate=   2.4kbits/s speed=0.0273x elapsed=0:01:17.43    \nframe=  128 fps=1.6 q=25.0 size=       1KiB time=00:00:02.13 bitrate=   2.4kbits/s speed=0.0274x elapsed=0:01:17.96    \nframe=  129 fps=1.6 q=13.0 size=       1KiB time=00:00:02.15 bitrate=   2.4kbits/s speed=0.0274x elapsed=0:01:18.50    \nframe=  130 fps=1.6 q=27.0 size=    2304KiB time=00:00:02.16 bitrate=8711.2kbits/s speed=0.0274x elapsed=0:01:19.03    \nframe=  132 fps=1.7 q=27.0 size=    2304KiB time=00:00:02.20 bitrate=8579.3kbits/s speed=0.0276x elapsed=0:01:19.56    \nframe=  133 fps=1.7 q=28.0 size=    2304KiB time=00:00:02.21 bitrate=8514.8kbits/s speed=0.0277x elapsed=0:01:20.07    \nframe=  134 fps=1.7 q=27.0 size=    2304KiB time=00:00:02.23 bitrate=8451.2kbits/s speed=0.0277x elapsed=0:01:20.60    \nframe=  134 fps=1.7 q=27.0 size=    2304KiB time=00:00:02.23 bitrate=8451.2kbits/s speed=0.0275x elapsed=0:01:21.13    \nframe=  136 fps=1.7 q=27.0 size=    2304KiB time=00:00:02.26 bitrate=8326.9kbits/s speed=0.0278x elapsed=0:01:21.65    \nframe=  138 fps=1.7 q=27.0 size=    2304KiB time=00:00:02.30 bitrate=8206.2kbits/s speed=0.028x elapsed=0:01:22.16    \nframe=  139 fps=1.7 q=26.0 size=    2304KiB time=00:00:02.31 bitrate=8147.2kbits/s speed=0.028x elapsed=0:01:22.68    \nframe=  140 fps=1.7 q=26.0 size=    2304KiB time=00:00:02.33 bitrate=8089.0kbits/s speed=0.028x elapsed=0:01:23.20    \nframe=  141 fps=1.7 q=13.0 size=    2304KiB time=00:00:02.35 bitrate=8031.6kbits/s speed=0.0281x elapsed=0:01:23.71    \nframe=  142 fps=1.7 q=26.0 size=    2304KiB time=00:00:02.36 bitrate=7975.1kbits/s speed=0.0281x elapsed=0:01:24.24    \nframe=  144 fps=1.7 q=25.0 size=    2304KiB time=00:00:02.40 bitrate=7864.3kbits/s speed=0.0283x elapsed=0:01:24.76    \nframe=  145 fps=1.7 q=25.0 size=    2304KiB time=00:00:02.41 bitrate=7810.1kbits/s speed=0.0283x elapsed=0:01:25.32    \nframe=  146 fps=1.7 q=24.0 size=    2304KiB time=00:00:02.43 bitrate=7756.6kbits/s speed=0.0283x elapsed=0:01:25.84    \nframe=  147 fps=1.7 q=12.0 size=    2304KiB time=00:00:02.45 bitrate=7703.8kbits/s speed=0.0284x elapsed=0:01:26.39    \nframe=  148 fps=1.7 q=24.0 size=    2304KiB time=00:00:02.46 bitrate=7651.8kbits/s speed=0.0284x elapsed=0:01:26.92    \nframe=  149 fps=1.7 q=25.0 size=    2304KiB time=00:00:02.48 bitrate=7600.4kbits/s speed=0.0284x elapsed=0:01:27.45    \nframe=  151 fps=1.7 q=25.0 size=    2304KiB time=00:00:02.51 bitrate=7499.7kbits/s speed=0.0286x elapsed=0:01:28.00    \nframe=  152 fps=1.7 q=26.0 size=    2304KiB time=00:00:02.53 bitrate=7450.4kbits/s speed=0.0286x elapsed=0:01:28.53    \nframe=  153 fps=1.7 q=13.0 size=    2304KiB time=00:00:02.55 bitrate=7401.7kbits/s speed=0.0286x elapsed=0:01:29.05    \nframe=  154 fps=1.7 q=26.0 size=    2304KiB time=00:00:02.56 bitrate=7353.6kbits/s speed=0.0286x elapsed=0:01:29.62    \nframe=  156 fps=1.7 q=26.0 size=    2304KiB time=00:00:02.58 bitrate=7306.2kbits/s speed=0.0286x elapsed=0:01:30.20    \nframe=  157 fps=1.7 q=26.0 size=    2304KiB time=00:00:02.61 bitrate=7213.1kbits/s speed=0.0288x elapsed=0:01:30.76    \nframe=  158 fps=1.7 q=26.0 size=    2304KiB time=00:00:02.63 bitrate=7167.5kbits/s speed=0.0288x elapsed=0:01:31.28    \nframe=  158 fps=1.7 q=26.0 size=    2304KiB time=00:00:02.63 bitrate=7167.5kbits/s speed=0.0287x elapsed=0:01:31.82    \nframe=  159 fps=1.7 q=13.0 size=    2304KiB time=00:00:02.65 bitrate=7122.4kbits/s speed=0.0287x elapsed=0:01:32.35    \nframe=  160 fps=1.7 q=26.0 size=    2304KiB time=00:00:02.66 bitrate=7077.9kbits/s speed=0.0287x elapsed=0:01:32.88    \nframe=  162 fps=1.7 q=26.0 size=    2304KiB time=00:00:02.68 bitrate=7033.9kbits/s speed=0.0287x elapsed=0:01:33.40    \nframe=  163 fps=1.7 q=26.0 size=    2304KiB time=00:00:02.71 bitrate=6947.6kbits/s speed=0.0289x elapsed=0:01:33.97    \nframe=  164 fps=1.7 q=26.0 size=    2304KiB time=00:00:02.73 bitrate=6905.3kbits/s speed=0.0289x elapsed=0:01:34.48    \nframe=  165 fps=1.7 q=13.0 size=    2304KiB time=00:00:02.75 bitrate=6863.4kbits/s speed=0.0289x elapsed=0:01:35.00    \nframe=  166 fps=1.7 q=26.0 size=    2304KiB time=00:00:02.76 bitrate=6822.1kbits/s speed=0.029x elapsed=0:01:35.52    \nframe=  167 fps=1.7 q=26.0 size=    2304KiB time=00:00:02.78 bitrate=6781.2kbits/s speed=0.029x elapsed=0:01:36.05    \nframe=  169 fps=1.7 q=25.0 size=    2304KiB time=00:00:02.81 bitrate=6701.0kbits/s speed=0.0292x elapsed=0:01:36.59    \nframe=  170 fps=1.7 q=25.0 size=    2304KiB time=00:00:02.83 bitrate=6661.5kbits/s speed=0.0292x elapsed=0:01:37.14    \nframe=  170 fps=1.7 q=25.0 size=    2304KiB time=00:00:02.83 bitrate=6661.5kbits/s speed=0.029x elapsed=0:01:37.69    \nframe=  172 fps=1.8 q=25.0 size=    2304KiB time=00:00:02.86 bitrate=6584.1kbits/s speed=0.0292x elapsed=0:01:38.24    \nframe=  173 fps=1.8 q=25.0 size=    2304KiB time=00:00:02.88 bitrate=6546.0kbits/s speed=0.0292x elapsed=0:01:38.78    \nframe=  175 fps=1.8 q=25.0 size=    2304KiB time=00:00:02.91 bitrate=6471.2kbits/s speed=0.0294x elapsed=0:01:39.33    \nframe=  176 fps=1.8 q=25.0 size=    2304KiB time=00:00:02.93 bitrate=6434.4kbits/s speed=0.0294x elapsed=0:01:39.92    \nframe=  177 fps=1.8 q=12.0 size=    2304KiB time=00:00:02.95 bitrate=6398.1kbits/s speed=0.0294x elapsed=0:01:40.46    \nframe=  178 fps=1.8 q=25.0 size=    2304KiB time=00:00:02.96 bitrate=6362.1kbits/s speed=0.0294x elapsed=0:01:41.05    \nframe=  180 fps=1.8 q=24.0 size=    2304KiB time=00:00:03.00 bitrate=6291.5kbits/s speed=0.0295x elapsed=0:01:41.61    \nframe=  181 fps=1.8 q=24.0 size=    2304KiB time=00:00:03.01 bitrate=6256.7kbits/s speed=0.0295x elapsed=0:01:42.17    \nframe=  182 fps=1.8 q=23.0 size=    2304KiB time=00:00:03.03 bitrate=6222.3kbits/s speed=0.0295x elapsed=0:01:42.67    \nframe=  182 fps=1.8 q=23.0 size=    2304KiB time=00:00:03.03 bitrate=6222.3kbits/s speed=0.0294x elapsed=0:01:43.20    \nframe=  183 fps=1.8 q=11.0 size=    2304KiB time=00:00:03.05 bitrate=6188.3kbits/s speed=0.0294x elapsed=0:01:43.72    \nframe=  185 fps=1.8 q=23.0 size=    2304KiB time=00:00:03.08 bitrate=6121.4kbits/s speed=0.0296x elapsed=0:01:44.27    \nframe=  187 fps=1.8 q=24.0 size=    2304KiB time=00:00:03.11 bitrate=6055.9kbits/s speed=0.0297x elapsed=0:01:44.78    \nframe=  188 fps=1.8 q=24.0 size=    2304KiB time=00:00:03.13 bitrate=6023.7kbits/s speed=0.0298x elapsed=0:01:45.30    \nframe=  189 fps=1.8 q=12.0 size=    2304KiB time=00:00:03.15 bitrate=5991.9kbits/s speed=0.0298x elapsed=0:01:45.82    \nframe=  190 fps=1.8 q=24.0 size=    2304KiB time=00:00:03.16 bitrate=5960.3kbits/s speed=0.0298x elapsed=0:01:46.38    \nframe=  191 fps=1.8 q=25.0 size=    2304KiB time=00:00:03.18 bitrate=5929.1kbits/s speed=0.0298x elapsed=0:01:46.90    \nframe=  193 fps=1.8 q=25.0 size=    2304KiB time=00:00:03.21 bitrate=5867.7kbits/s speed=0.0299x elapsed=0:01:47.41    \nframe=  194 fps=1.8 q=26.0 size=    2304KiB time=00:00:03.23 bitrate=5837.4kbits/s speed=0.03x elapsed=0:01:47.93    \nframe=  194 fps=1.8 q=26.0 size=    2304KiB time=00:00:03.23 bitrate=5837.4kbits/s speed=0.0298x elapsed=0:01:48.45    \nframe=  195 fps=1.8 q=12.0 size=    2304KiB time=00:00:03.25 bitrate=5807.5kbits/s speed=0.0298x elapsed=0:01:49.13    \nframe=  196 fps=1.8 q=26.0 size=    2304KiB time=00:00:03.26 bitrate=5777.9kbits/s speed=0.0298x elapsed=0:01:49.67    \nframe=  198 fps=1.8 q=26.0 size=    2304KiB time=00:00:03.30 bitrate=5719.5kbits/s speed=0.0299x elapsed=0:01:50.19    \nframe=  199 fps=1.8 q=26.0 size=    2304KiB time=00:00:03.31 bitrate=5690.8kbits/s speed=0.03x elapsed=0:01:50.72    \nframe=  200 fps=1.8 q=26.0 size=    2304KiB time=00:00:03.33 bitrate=5662.3kbits/s speed=0.03x elapsed=0:01:51.24    \nframe=  201 fps=1.8 q=13.0 size=    2304KiB time=00:00:03.35 bitrate=5634.1kbits/s speed=0.03x elapsed=0:01:51.77    \nframe=  203 fps=1.8 q=26.0 size=    2304KiB time=00:00:03.38 bitrate=5578.6kbits/s speed=0.0301x elapsed=0:01:52.29    \nframe=  205 fps=1.8 q=25.0 size=    2304KiB time=00:00:03.41 bitrate=5524.2kbits/s speed=0.0303x elapsed=0:01:52.81    \nframe=  206 fps=1.8 q=25.0 size=    2304KiB time=00:00:03.43 bitrate=5497.4kbits/s speed=0.0303x elapsed=0:01:53.35    \nframe=  207 fps=1.8 q=12.0 size=    2304KiB time=00:00:03.45 bitrate=5470.8kbits/s speed=0.0303x elapsed=0:01:53.88    \nframe=  208 fps=1.8 q=25.0 size=    2304KiB time=00:00:03.46 bitrate=5444.5kbits/s speed=0.0303x elapsed=0:01:54.40    \nframe=  209 fps=1.8 q=27.0 size=    2304KiB time=00:00:03.48 bitrate=5418.5kbits/s speed=0.0303x elapsed=0:01:54.93    \nframe=  210 fps=1.8 q=27.0 size=    2304KiB time=00:00:03.50 bitrate=5392.7kbits/s speed=0.0303x elapsed=0:01:55.46    \nframe=  211 fps=1.8 q=28.0 size=    2304KiB time=00:00:03.51 bitrate=5367.1kbits/s speed=0.0303x elapsed=0:01:56.01    \nframe=  212 fps=1.8 q=28.0 size=    2304KiB time=00:00:03.53 bitrate=5341.8kbits/s speed=0.0303x elapsed=0:01:56.54    \nframe=  212 fps=1.8 q=28.0 size=    2304KiB time=00:00:03.53 bitrate=5341.8kbits/s speed=0.0302x elapsed=0:01:57.05    \nframe=  213 fps=1.8 q=14.0 size=    2304KiB time=00:00:03.55 bitrate=5316.7kbits/s speed=0.0302x elapsed=0:01:57.57    \nframe=  215 fps=1.8 q=28.0 size=    2304KiB time=00:00:03.58 bitrate=5267.3kbits/s speed=0.0303x elapsed=0:01:58.10    \nframe=  216 fps=1.8 q=28.0 size=    2304KiB time=00:00:03.60 bitrate=5242.9kbits/s speed=0.0303x elapsed=0:01:58.64    \nframe=  218 fps=1.8 q=29.0 size=    2304KiB time=00:00:03.63 bitrate=5194.8kbits/s speed=0.0305x elapsed=0:01:59.16    \nframe=  218 fps=1.8 q=29.0 size=    2304KiB time=00:00:03.63 bitrate=5194.8kbits/s speed=0.0304x elapsed=0:01:59.68    \nframe=  220 fps=1.8 q=29.0 size=    2304KiB time=00:00:03.66 bitrate=5147.6kbits/s speed=0.0305x elapsed=0:02:00.21    \nframe=  221 fps=1.8 q=28.0 size=    2304KiB time=00:00:03.68 bitrate=5124.3kbits/s speed=0.0305x elapsed=0:02:00.73    \nframe=  222 fps=1.8 q=28.0 size=    2304KiB time=00:00:03.70 bitrate=5101.2kbits/s speed=0.0305x elapsed=0:02:01.27    \nframe=  223 fps=1.8 q=28.0 size=    2304KiB time=00:00:03.71 bitrate=5078.3kbits/s speed=0.0305x elapsed=0:02:01.79    \nframe=  224 fps=1.8 q=27.0 size=    2304KiB time=00:00:03.73 bitrate=5055.6kbits/s speed=0.0305x elapsed=0:02:02.32    \nframe=  225 fps=1.8 q=15.0 size=    2304KiB time=00:00:03.75 bitrate=5033.2kbits/s speed=0.0305x elapsed=0:02:02.84    \nframe=  226 fps=1.8 q=27.0 size=    2304KiB time=00:00:03.76 bitrate=5010.9kbits/s speed=0.0305x elapsed=0:02:03.36    \nframe=  228 fps=1.8 q=26.0 size=    2304KiB time=00:00:03.80 bitrate=4966.9kbits/s speed=0.0307x elapsed=0:02:03.88    \nframe=  230 fps=1.8 q=26.0 size=    2304KiB time=00:00:03.83 bitrate=4923.7kbits/s speed=0.0308x elapsed=0:02:04.40    \nframe=  230 fps=1.8 q=26.0 size=    2304KiB time=00:00:03.83 bitrate=4923.7kbits/s speed=0.0307x elapsed=0:02:04.95    \nframe=  232 fps=1.8 q=26.0 size=    2304KiB time=00:00:03.86 bitrate=4881.3kbits/s speed=0.0308x elapsed=0:02:05.50    \nframe=  234 fps=1.9 q=26.0 size=    2304KiB time=00:00:03.90 bitrate=4839.6kbits/s speed=0.0309x elapsed=0:02:06.11    \nframe=  235 fps=1.9 q=26.0 size=    2304KiB time=00:00:03.91 bitrate=4819.0kbits/s speed=0.0309x elapsed=0:02:06.64    \nframe=  236 fps=1.9 q=26.0 size=    2304KiB time=00:00:03.93 bitrate=4798.6kbits/s speed=0.0309x elapsed=0:02:07.30    \nframe=  238 fps=1.9 q=26.0 size=    2304KiB time=00:00:03.95 bitrate=4778.3kbits/s speed=0.0308x elapsed=0:02:08.09    \nframe=  240 fps=1.9 q=26.0 size=    2304KiB time=00:00:04.00 bitrate=4718.6kbits/s speed=0.0311x elapsed=0:02:08.81    \nframe=  242 fps=1.9 q=26.0 size=    2304KiB time=00:00:04.03 bitrate=4679.6kbits/s speed=0.0311x elapsed=0:02:09.56    \nframe=  243 fps=1.9 q=13.0 size=    2304KiB time=00:00:04.05 bitrate=4660.3kbits/s speed=0.0311x elapsed=0:02:10.24    \nframe=  245 fps=1.9 q=26.0 size=    2304KiB time=00:00:04.08 bitrate=4622.3kbits/s speed=0.0312x elapsed=0:02:10.90    \nframe=  247 fps=1.9 q=27.0 size=    2304KiB time=00:00:04.11 bitrate=4584.9kbits/s speed=0.0313x elapsed=0:02:11.62    \nframe=  248 fps=1.9 q=27.0 size=    2304KiB time=00:00:04.13 bitrate=4566.4kbits/s speed=0.0312x elapsed=0:02:12.31    \nframe=  250 fps=1.9 q=25.0 size=    2304KiB time=00:00:04.16 bitrate=4529.8kbits/s speed=0.0313x elapsed=0:02:13.03    \nframe=  251 fps=1.9 q=25.0 size=    2304KiB time=00:00:04.18 bitrate=4511.8kbits/s speed=0.0313x elapsed=0:02:13.78    \nframe=  253 fps=1.9 q=25.0 size=    2304KiB time=00:00:04.21 bitrate=4476.1kbits/s speed=0.0314x elapsed=0:02:14.46    \nframe=  255 fps=1.9 q=24.0 size=    2304KiB time=00:00:04.23 bitrate=4458.5kbits/s speed=0.0313x elapsed=0:02:15.18    \nframe=  256 fps=1.9 q=24.0 size=    2304KiB time=00:00:04.26 bitrate=4423.7kbits/s speed=0.0314x elapsed=0:02:15.90    \nframe=  258 fps=1.9 q=25.0 size=    4864KiB time=00:00:04.30 bitrate=9266.5kbits/s speed=0.0315x elapsed=0:02:16.48    \nframe=  260 fps=1.9 q=25.0 size=    4864KiB time=00:00:04.31 bitrate=9230.7kbits/s speed=0.0315x elapsed=0:02:17.01    \nframe=  262 fps=1.9 q=25.0 size=    4864KiB time=00:00:04.36 bitrate=9125.0kbits/s speed=0.0317x elapsed=0:02:17.64    \nframe=  263 fps=1.9 q=12.0 size=    4864KiB time=00:00:04.38 bitrate=9090.3kbits/s speed=0.0317x elapsed=0:02:18.31    \nframe=  265 fps=1.9 q=25.0 size=    4864KiB time=00:00:04.41 bitrate=9021.7kbits/s speed=0.0318x elapsed=0:02:18.91    \nframe=  267 fps=1.9 q=25.0 size=    4864KiB time=00:00:04.45 bitrate=8954.1kbits/s speed=0.0319x elapsed=0:02:19.48    \nframe=  268 fps=1.9 q=25.0 size=    4864KiB time=00:00:04.46 bitrate=8920.7kbits/s speed=0.0319x elapsed=0:02:20.23    \nframe=  270 fps=1.9 q=26.0 size=    4864KiB time=00:00:04.48 bitrate=8887.6kbits/s speed=0.0318x elapsed=0:02:20.93    \nframe=  271 fps=1.9 q=27.0 size=    4864KiB time=00:00:04.51 bitrate=8822.0kbits/s speed=0.0319x elapsed=0:02:21.63    \nframe=  273 fps=1.9 q=28.0 size=    4864KiB time=00:00:04.55 bitrate=8757.3kbits/s speed=0.032x elapsed=0:02:22.28    \nframe=  274 fps=1.9 q=28.0 size=    4864KiB time=00:00:04.56 bitrate=8725.4kbits/s speed=0.032x elapsed=0:02:22.92    \nframe=  276 fps=1.9 q=28.0 size=    4864KiB time=00:00:04.60 bitrate=8662.1kbits/s speed=0.032x elapsed=0:02:23.59    \nframe=  276 fps=1.9 q=28.0 size=    4864KiB time=00:00:04.60 bitrate=8662.1kbits/s speed=0.0319x elapsed=0:02:24.21    \nframe=  276 fps=1.9 q=28.0 size=    4864KiB time=00:00:04.60 bitrate=8662.1kbits/s speed=0.0318x elapsed=0:02:24.82    \nframe=  276 fps=1.9 q=28.0 size=    4864KiB time=00:00:04.60 bitrate=8662.1kbits/s speed=0.0316x elapsed=0:02:25.52    \nframe=  276 fps=1.9 q=28.0 size=    4864KiB time=00:00:04.60 bitrate=8662.1kbits/s speed=0.0315x elapsed=0:02:26.13    \nframe=  276 fps=1.9 q=28.0 size=    4864KiB time=00:00:04.60 bitrate=8662.1kbits/s speed=0.0314x elapsed=0:02:26.71    \nframe=  276 fps=1.9 q=28.0 size=    4864KiB time=00:00:04.60 bitrate=8662.1kbits/s speed=0.0312x elapsed=0:02:27.32    \nframe=  276 fps=1.9 q=28.0 size=    4864KiB time=00:00:04.60 bitrate=8662.1kbits/s speed=0.0311x elapsed=0:02:27.86    \nframe=  276 fps=1.9 q=28.0 size=    4864KiB time=00:00:04.60 bitrate=8662.1kbits/s speed=0.031x elapsed=0:02:28.60    \nframe=  276 fps=1.9 q=28.0 size=    4864KiB time=00:00:04.60 bitrate=8662.1kbits/s speed=0.0308x elapsed=0:02:29.18    \nframe=  276 fps=1.8 q=28.0 size=    4864KiB time=00:00:04.60 bitrate=8662.1kbits/s speed=0.0307x elapsed=0:02:29.78    \nframe=  276 fps=1.8 q=28.0 size=    4864KiB time=00:00:04.60 bitrate=8662.1kbits/s speed=0.0306x elapsed=0:02:30.41    \nframe=  276 fps=1.8 q=28.0 size=    4864KiB time=00:00:04.60 bitrate=8662.1kbits/s speed=0.0304x elapsed=0:02:31.12    \nframe=  276 fps=1.8 q=28.0 size=    4864KiB time=00:00:04.60 bitrate=8662.1kbits/s speed=0.0303x elapsed=0:02:31.89    \n[out#0/webm @ 0000029e9b7d93c0] video:6006KiB audio:0KiB subtitle:0KiB other streams:0KiB global headers:0KiB muxing overhead: 0.047346%\nframe=  300 fps=2.0 q=25.0 Lsize=    6009KiB time=00:00:05.00 bitrate=9845.4kbits/s speed=0.0328x elapsed=0:02:32.22    \n",
  "seconds": 154.24560284614563,
  "probe_out": {}
}